<?xml version="1.0" encoding="utf-8"?>
<!-- Generator: Adobe Illustrator 18.0.0, SVG Export Plug-In . SVG Version: 6.00 Build 0)  -->
<!DOCTYPE svg PUBLIC "-//W3C//DTD SVG 1.1//EN" "http://www.w3.org/Graphics/SVG/1.1/DTD/svg11.dtd">
<svg version="1.1" id="Слой_1" xmlns="http://www.w3.org/2000/svg" xmlns:xlink="http://www.w3.org/1999/xlink" x="0px" y="0px"
	 viewBox="0 0 768 801.8" enable-background="new 0 0 768 801.8" xml:space="preserve">
<path style="fill:none;fill-opacity:1;stroke:#FFF;stroke-width:1px;stroke-linecap:butt;stroke-linejoin:miter;stroke-opacity:.2;"      d="
	M468.6,97.5l2.1,4.4h4.1l4.8,3.9l-6.7,2.8h-5.6v-3.3h-2.2h-3.8l-4.6-3.8l1.7-4v-2.2h6.7l-1.1,2.2l1.6,3.6L468.6,97.5z M763,245.7
	l-3,5.4l-3.5,8.9v7.2l-2.1,5.9l-2,8.1l-4.1,5.4l-3.7,4.8l-3.7,3.2l-2.1,4.3l-5.9,8.6l-5.4-1.6l2.7,4.8l-7.5,2.7l-7,7.5l-3.8,9.1
	l-6.5,12.4l-11.6,13.4l-5.2,2v-3.6l-5.3-1.6l-2,2.7l5,2.2l-2.6,4.3l-5.6,6.5l1.6,1.8v4.6l-2.3,3.8l2.3,3.8v6.9l-1.5,4.3l2.8,2.7
	l-3,8.1l1.7,9.2v9.6l-2.8,5.9l-2.8,12.3v5.6v5.8l-1.6,5.4l-4.2,4.3l-3,7l-3.5,7.5v5.4l3.7,7.5l-3.4,4.3l-5.8,5v6.2l-4.5,6.5
	l-7.7,5.1v5.1l-3.3,4.9v5.6v9.4l-2.4,3.2l-8.7,2.7l-6.5,4.3l-3.5,4.8v5.9l-16.3,1.6l-5.9-4.2v4.8l-4.6,1.1l-5.3-2.2l-5.6,3V563
	c0,0-3.3,4.3-4.9,4.3s-2.4-3.8-2.4-3.8l-7.2,2.4v4.6l-7.6,3.8l-4.6,3.9v4.7l-4.4-2.7l-5.4-0.5l-5.2,4.3l-6.3,2.7l-6.9,3.8l-4.8,5.9
	l-5.9,3.2l-8.1,6.5l-5.1,5.9l-6.7,1.9v5.1l-4,8.6l2,6.5l-1.4,5.4l0.6,7l-0.5,8.1l0.6,5.9l3.5-0.5l-4.2,8.5v4.9l-6.7,7.3v4.5
	l-4.6,4.3l-8.3,8.1l-6.2,11.3l-4.7,11.8l-2.6,10.2l-6.4,10.8l-14,12.4l-11.8,9.1l-4.8,6.5l-3.2,9.1l-4.3,9.1l-5.4,6.2l-6.9,7.8H400
	l0.5-6.2l-0.5-4.7l3.2-4.2l2.9-3.8h3.3h3.5l1.5-5.1l1.2-6.8l-1.1-6.7l-1.6,2.9l-2.7,5.8l-3,5.4h-5.1l-7.5-9.6l-3.8-8.1l-6.5-2.4
	l-4.3-4.9l-2.9-3.5l-2.2-1.5h-3.4l-6.5-3.4l-2.7-4.5l-8-2.7l-1.7,4h-3.2l-0.5-5.7l-3.2-5.9l-4.8-5l-6.5-3.8l-3.8-2l-6.9,3.5h-4.4
	l4.8-8.7l5.9-5.6l5.4-5.6l9.1-12.5l5.9-7l3.8-6.5l5.3-4.3l4.3-2.7l4.8-2.2l4.8-3.5l3.5-2.8h6.2l4.3-6.3l6.5-3.7c0,0,1.1-4-0.5-6.1
	c-1.6-2.2,2.2-4.4,2.2-4.4l-1.6-9.7l-3.8-7.8l-4.3-2h-6l-2.9-9.4l3.5-7.9l2.2-2.9l0.5-8.7l-1.6-4.6l-4.5-2.1H372l-11.3-1.5l-0.5-6.5
	l-2.2-10.4l-3.7-7.1l2.6-4.9l-2.6-4.3l-8.7-2.2l-3.8-4.3l-4.3,5.1l-6.1-1.7h-8.9h-4.5h-7.5l-0.3-13l1.1-4.8v-12
	c0,0-2.3-9.1-2.8-10.8c-0.5-1.6-1.1-9.1-1.1-9.1l3.1-8.1l4.1-5.7c0,0,0-6.2,0-7.8c0-1.6,3-6.5,3-6.5l1.5-6.5l-2.5-6.7l-2.1-6h-4.7
	l-7.3-5.2l-1.4-5.9v-6.8l3.3-7.6h-4.5h-17.8h-13.8l0.5-6.1l-3.2-8.7l-4.6-6.3h3.3v-7.8l-0.4-8.1l-1.4-4.8l2.4-5.4l-5.8-4.8l-4.7-2.5
	h-8.9h-9.4l-7.5-4.1l0.2-4.8h-10.4l-5.4-4.3l-0.9-4.6h-5.6h-2.2l-5.6-3.3h-7.8H187l-1.1-4.9l-8.1-2.9l-3.2-2.1l-1.1-3.6h-2.7l-3.2-6
	l0.5-11l-1.6-7.7l1.1-8.2l1.6-6l-2.7-2.2l-7-0.6l-7.5,0.5l-7.5,1.6l-6.5,3.2l-6.5,7l-8.1,4.8l-8.1,3l-5.4,8h-8.6l-5.8-2.2H78.4
	l-9.7,1.2l-4.1-2.6l-1.2-14.2v-9.9l3.7-7l-2.6,2.2l-8.9,6.7l-3.3,4.7h-6.2h-9.7L32.3,290h-3.3h-6.7h-6.8l3.8-3.9L20,280h-2.9
	l-1.1-4.5l-4.3-6.3l-4.8-6.7L5,257.1l-5-2.7v-5l5.3-2.7c-3.2-3.8-0.2-8.6-0.2-8.6c0-3.2,8.3-4.9,8.3-4.9v-4.5v-4.5v-3.4l5.1-2.7
	l2.7-5v-5.8l3.9-4.3l4-3.2l6.7-2.9l4.3-3.8h7.8h2.2h10l2.9-6.4l8.2-0.3v6.7h6.7v-9.1l1.9-7.8l3.6-17.7l2.1-10.2l1.4-17.4v-5.7
	l-1.2-4.8l-3.8-6.5l-4.6-7l1.2-12.7l9.4-2.3l4.6,2.3v-4.5l-0.5-3.2l-2.6-2.2l-4.4,0.5L79,82v-9.5l29.6-2.2l3.9-3.5l3.3,4h4.1
	l4.5-5.4l3.6-3.6v4.7l5.6,4.2v3.3v7.5l3.9,0.5l5.1,2.2l9.9,5.4l9.2-4.3c3.2-1.6,2.2,8.6,2.2,8.6l3.8-3.2l3.8-3.8
	c-0.5-3.2,4.3-4.5,4.3-4.5l3.6-3.6l5.5-1.1l4.3-1.1l3.2-3.2l2.2-7l5.9-0.5l2.4-1.6l1.8-2.5v-4.5l-9.1-0.5l-2.5-2.2l0.7-5.9l-3.7-6.1
	l-1-10l-4.8-2.7l-3.8-2.4c-4.3-7,4.1-1.3,4.1-1.3h6.1l3.8,2.9l11.3,1.2c0.5-4.8,8.3,3,8.3,3l3.9-0.4v-5.1l3.6-1.1l3.4-1.1l7.5-0.5
	v-1.7l6-0.5l3.2-1.1c-0.5-4.3,4.2-3.4,4.2-3.4V16l7.1,1.1c-2.2-4.8,5.9-5.4,5.9-5.4l1.5-4.3c-4.3-5.9,3.3-3.8,3.3-3.8
	c5.4-2.2,6.7,2.2,6.7,2.2l-0.1,4.9c0,0-1.1,5.8,0,5.8c2.2,0,6.2,4.8,6.2,4.8l2.3,7l-6.2,6.8v7.7l-2.2,3.4V52l5.6,11.1v6.8
	c3.3,0,6.4,7.3,6.4,7.3l10.3,7.1h3.6l6.4-5.6c0-5.6,7,0,7,0c1.6-6.7,10.8-5.7,10.8-5.7c3.8-9.7,11.1-2.1,11.1-2.1h17.4l3.2-4.8
	l-3.2-4.1l2.7-3.3h10.2l7.6-3.3v2.2l10.7,5.4l6.6,2.3c0-3.1,6.7-6.1,6.7-6.1c3.2,0.5,7.6,0.5,7.6,0.5c2.7,2.7,9.2,2.7,9.2,2.7
	c3.2,0,5.9-6.5,5.9-6.5l3.2-7l2.7-5.6l5.4-6.8c0-7,8.6-10.8,8.6-10.8c-2.2-4.3,2.4-4.3,2.4-4.3c3.8-0.5,4.4,9.4,4.4,9.4v10.5
	l3.5,6.7c2.2-0.5,5.2,15.3,5.2,15.3c2.2,5.4,5.4,0.5,5.4,0.5l5.3,3.6l-1.7,4.5h4.5h2.2v5.9l-5.1,2.2l4.1,2.7l-3,2.7l-6.9,9.1
	l-8.6,6.5l-6.4,7.5l-5.4,4.3l-7.5,16.7l3.8-2.2l0.5-5.4l3.8-5.4l4.3-1.1l-1.1,9.7l2.7-4.3l2.2-7l3.2-4.5l2.7-2.9h7.5l5.4,2.7
	l5.9,1.8l7.9-1.1h6.1c0,0,7.5-1.2,9.1-1.7c1.6-0.5,5.4,3,5.4,3l-2.2,6.8l-6.5,10.7l-6.5,5.9l-3.2,2.7l-4.3-0.6l-4.3,1.1l-4.8,1.6
	l-4.3-1.6l-6.5,4.3l7-0.5l7,1.6l3.5-3.2l2.2,1.2v10.6l2.5-4.3l2.7-3.5l2.4-3.5l2.8-3.2l4.1-1.6l3.4-2.3v-5.8l5.7,2.7l2.1-5.9
	l2.4-4.3l7.1-2.2l6,2.7l1.1-3.2l6.5,2.7l9.1,3.8l4.3,1.6l3.8-0.5l1.6,3.8l5.4,1.6l7,0.5l-0.5,4.8l4.8,6.7l-0.7-5.7h5.5l2.7,0.6
	l4,4.7l2.3,4.7v5.1l-3.4,7.5l-2.2,8.6l5-4.3l1.2-3.8l3.3-2.7l0.6-2.7l3.2-0.5l2.7,2.7l3.8-3.8l3.2-1.3l0.4,4.1h2.3l3.2-4.3l5.9,2
	l5.9,4.1l8.1,2.3l4.6,0.4h4l3.2,2l5.9,0.3l5.9-1.3l12.9-0.6l8.1-0.6l7.5,3.7l8.6,4.3l8.1,7.5l6.5,3.8l6.5,7l5.4,4.3l3.8,4.8l4.3,2.4
	l5.1,5.7h2.4l4.3,1.4l4.4,0.9h5.8l4.8-1.1l4.8-2.3l4.8,4.1l4.3,5.3l1.1,5.3l1.6,7.5l2.7,9.7L763,245.7z M453.9,722.8l-1.4,0.9
	l-1.6,2.5h-3.6H445l-2.6,2.6c0,0,0.8,2.4,0,3.2c-0.8,0.8-2.8,3.1-2.8,3.1l-1.3,4l-2.6,4.4l-1.3,1.6h-2.8l-2.9,2.2l-2.1,4.7l-2.3,3.7
	l-1,5h2.7l3.5-2.6l2.6-2l2.8-3.3l4.6-2.9l2.8-2.9l1.5-2.6l1.3-3.5l2.6-3.2l3.6-2.6l2.2-2.8l0.1-4.1l0.2-3.1L453.9,722.8L453.9,722.8
	z"/>
</svg>
